<svg width="59" height="38" viewBox="0 0 59 38" fill="none" xmlns="http://www.w3.org/2000/svg">
<path d="M3 16.5L0.5 16.5L0.5 21.5L3 21.5L3 16.5ZM57.7678 20.7678C58.7441 19.7915 58.7441 18.2085 57.7678 17.2322L41.8579 1.32233C40.8816 0.346016 39.2986 0.346017 38.3223 1.32233C37.346 2.29864 37.346 3.88155 38.3223 4.85786L52.4645 19L38.3223 33.1421C37.346 34.1184 37.346 35.7014 38.3223 36.6777C39.2986 37.654 40.8816 37.654 41.8579 36.6777L57.7678 20.7678ZM3 19L3 21.5L56 21.5L56 19L56 16.5L3 16.5L3 19Z" fill="#FFD700"/>
</svg>
