<svg width="110" height="42" viewBox="0 0 110 42" fill="none" xmlns="http://www.w3.org/2000/svg">
<path d="M6.66602 41.1045H0V0H6.66602V41.1045ZM60.9775 40.9658L61.0898 41.0957H52.2939L35.5791 21.8047L40.041 16.8037L56.5547 35.8623L78.9883 9.99805H87.8379L60.9775 40.9658ZM42.1895 6.37988L29.9258 20.4678L42.1621 34.5254L47.7705 40.9375H7.77637V34.2715H33.7275L24.6865 23.8857H7.77637V17.2197H24.541L33.7275 6.66602H7.77637V0H47.7705L42.1895 6.37988Z" fill="white"/>
<path d="M80.1309 34.4385H110V41.1045H65.501L69.6455 36.8438L69.3896 36.6211L95.3701 6.66602H49.1875L55.0811 0H110L80.1309 34.4385ZM56.4844 31.2393L54.4648 28.9375L71.0557 9.99805H75.0918L56.4844 31.2393ZM57.1689 18.7695L53.2266 27.5264L51.4277 25.4756L51.4355 25.457L43.5049 16.4111L43.4844 16.4238L42.5303 15.335L46.1035 13.0527L46.6123 9.99805H68.4551L57.1689 18.7695ZM45.8252 15.1025L52.6123 22.8428L54.4395 18.7842L47.0635 14.4043L45.8252 15.1025ZM47.7861 13.543L56.4336 16.7549L61.5557 12.7754H48.1514L47.7861 13.543Z" fill="#FFD700"/>
</svg>
