<svg width="18" height="11" viewBox="0 0 18 11" fill="none" xmlns="http://www.w3.org/2000/svg">
<path d="M8.69531 0.74353C10.1919 0.743605 11.6005 1.13677 12.8301 1.83044L12.4141 2.17517C11.414 1.64225 10.2969 1.31679 9.11523 1.25427L8.69531 1.24353C4.32948 1.24353 0.731697 4.82036 0.510742 9.35779L0.5 9.80017C0.5 9.81123 0.500922 9.8223 0.500977 9.83337H16.8887C16.8887 9.8223 16.8896 9.81124 16.8896 9.80017L16.8789 9.35779C16.7799 7.32438 16.0017 5.48482 14.7812 4.07263L15.166 3.75427C16.5476 5.35768 17.3896 7.47604 17.3896 9.80017C17.3896 9.97905 17.3838 10.1571 17.374 10.3334H0.0166016C0.00677948 10.157 0 9.97907 0 9.80017C0.000203849 4.79829 3.89339 0.74353 8.69531 0.74353Z" fill="black"/>
<path d="M14.3215 2.99324L9.2022 8.18387C8.76507 8.62709 7.94972 8.64168 7.47398 8.21479C6.99823 7.7879 7.08201 7.11685 7.65154 6.79244L14.3215 2.99324Z" fill="black"/>
</svg>
