<svg width="33" height="31" viewBox="0 0 33 31" fill="none" xmlns="http://www.w3.org/2000/svg">
<path fill-rule="evenodd" clip-rule="evenodd" d="M16.8097 27.5994L29.4779 15.6296L29.8692 16.0007C31.5177 17.5642 31.5151 20.0969 29.8635 21.6575L23.1765 27.9759C21.5248 29.5365 18.8495 29.5341 17.201 27.9705L16.8097 27.5994ZM16.0635 26.8916L28.7317 14.9218L15.4797 2.35249C13.8312 0.788909 11.1559 0.786494 9.50425 2.3471L2.81725 8.66549C1.16559 10.2261 1.16304 12.7588 2.81155 14.3223L16.0635 26.8916ZM2.0639 15.0288C0.00326544 13.0743 0.00645334 9.90847 2.07102 7.95771L8.75803 1.63932C10.8226 -0.31144 14.1667 -0.308421 16.2274 1.64606L30.6168 15.2942C32.6775 17.2487 32.6743 20.4145 30.6097 22.3653L23.9227 28.6837C21.8581 30.6344 18.514 30.6314 16.4534 28.6769L16.0621 28.3058L15.689 27.9519L15.3159 27.5981L2.0639 15.0288ZM13.7129 29.465C13.9191 29.6603 14.2535 29.6603 14.4598 29.465C14.6661 29.2698 14.6661 28.9532 14.4599 28.7579L1.63434 16.6136C1.4281 16.4184 1.09368 16.4183 0.8874 16.6136C0.681118 16.8088 0.681081 17.1254 0.887319 17.3207L13.7129 29.465ZM31.4764 13.3909C31.6831 13.196 31.6837 12.8794 31.4778 12.6838L18.6739 0.519026C18.468 0.323414 18.1336 0.322845 17.927 0.517755C17.7204 0.712666 17.7198 1.02925 17.9256 1.22486L30.7295 13.3897C30.9354 13.5853 31.2698 13.5858 31.4764 13.3909ZM9.55547 28.5731C9.76053 28.7695 10.0949 28.7713 10.3024 28.5772C10.5098 28.383 10.5118 28.0665 10.3067 27.8701L2.89376 20.7706C2.6887 20.5742 2.35429 20.5724 2.14684 20.7665C1.93939 20.9606 1.93745 21.2772 2.14251 21.4736L9.55547 28.5731ZM30.5468 9.45313C30.7523 9.25711 30.751 8.94053 30.5439 8.74603L23.0587 1.71482C22.8516 1.52032 22.5172 1.52155 22.3118 1.71757C22.1063 1.91359 22.1076 2.23017 22.3147 2.42467L29.7999 9.45588C30.0069 9.65038 30.3413 9.64915 30.5468 9.45313ZM25.3139 22.9384C25.733 23.3359 25.7324 23.9798 25.3125 24.3766C24.8926 24.7733 24.2124 24.7727 23.7933 24.3752C23.3742 23.9777 23.3749 23.3338 23.7948 22.9371C24.2147 22.5403 24.8948 22.5409 25.3139 22.9384ZM25.613 22.6559C26.1969 23.2097 26.196 24.1069 25.611 24.6597C25.0259 25.2125 24.0782 25.2117 23.4943 24.6578C22.9103 24.1039 22.9112 23.2068 23.4963 22.654C24.0813 22.1011 25.029 22.102 25.613 22.6559Z" fill="#FFD700"/>
</svg>
