<svg width="34" height="32" viewBox="0 0 34 32" fill="none" xmlns="http://www.w3.org/2000/svg">
<rect x="1.48486" y="1.2644" width="31.7461" height="30" rx="4.5" stroke="#FFD700"/>
<path d="M17.2668 3.68896C20.856 3.6892 23.718 6.43718 23.718 9.77002C23.718 13.1028 20.856 15.8508 17.2668 15.8511C13.6775 15.8511 10.8147 13.103 10.8147 9.77002C10.8147 6.43703 13.6775 3.68896 17.2668 3.68896Z" stroke="#FFD700"/>
<mask id="path-3-inside-1_42_549" fill="white">
<path d="M17.0208 17.7644C25.5847 17.7644 32.6113 22.5835 33.3313 28.7234C32.5691 30.5109 30.7967 31.7644 28.7307 31.7644H5.98462C3.38705 31.7643 1.25313 29.7833 1.00903 27.2498C2.58608 21.8298 9.15518 17.7645 17.0208 17.7644Z"/>
</mask>
<path d="M17.0208 17.7644V16.7644H17.0207L17.0208 17.7644ZM33.3313 28.7234L34.2512 29.1156L34.3555 28.871L34.3245 28.6069L33.3313 28.7234ZM5.98462 31.7644L5.98458 32.7644H5.98462V31.7644ZM1.00903 27.2498L0.0488534 26.9704L-0.00476158 27.1546L0.0136424 27.3457L1.00903 27.2498ZM17.0208 17.7644V18.7644C21.1215 18.7644 24.8203 19.9193 27.5574 21.7699C30.298 23.6228 32.0201 26.1283 32.3381 28.8399L33.3313 28.7234L34.3245 28.6069C33.9224 25.1786 31.7713 22.2046 28.6776 20.113C25.5804 18.019 21.4839 16.7644 17.0208 16.7644V17.7644ZM33.3313 28.7234L32.4114 28.3312C31.8007 29.7636 30.3816 30.7644 28.7307 30.7644V31.7644V32.7644C31.2118 32.7644 33.3376 31.2583 34.2512 29.1156L33.3313 28.7234ZM28.7307 31.7644V30.7644H5.98462V31.7644V32.7644H28.7307V31.7644ZM5.98462 31.7644L5.98465 30.7644C3.90746 30.7643 2.19963 29.1799 2.00442 27.1539L1.00903 27.2498L0.0136424 27.3457C0.306638 30.3867 2.86665 32.7643 5.98458 32.7644L5.98462 31.7644ZM1.00903 27.2498L1.96921 27.5291C3.37729 22.6899 9.41606 18.7645 17.0208 18.7644L17.0208 17.7644L17.0207 16.7644C8.8943 16.7645 1.79487 20.9697 0.0488534 26.9704L1.00903 27.2498Z" fill="#FFD700" mask="url(#path-3-inside-1_42_549)"/>
</svg>
