<svg width="15" height="14" viewBox="0 0 15 14" fill="none" xmlns="http://www.w3.org/2000/svg">
<path d="M7.16016 0.25C10.9821 0.25 14.0713 3.27739 14.0713 7C14.0713 10.7226 10.9821 13.75 7.16016 13.75C3.33838 13.7498 0.25 10.7225 0.25 7C0.25 3.2775 3.33838 0.250178 7.16016 0.25Z" stroke="black" stroke-width="0.5"/>
<path d="M7.16113 5.25C8.15831 5.25002 8.95703 6.03883 8.95703 7C8.95703 7.96117 8.15831 8.74998 7.16113 8.75C6.16394 8.75 5.36523 7.96119 5.36523 7C5.36523 6.03881 6.16394 5.25 7.16113 5.25Z" stroke="black" stroke-width="0.5"/>
<path d="M9.20605 7H14.3207" stroke="black" stroke-width="0.5"/>
<path d="M5.6261 7H0" stroke="black" stroke-width="0.5"/>
<path d="M7.16016 9V14" stroke="black" stroke-width="0.5"/>
</svg>
