<svg width="16" height="12" viewBox="0 0 16 12" fill="none" xmlns="http://www.w3.org/2000/svg">
<path d="M13.5488 0.0107422C14.5571 0.113376 15.3438 0.964625 15.3438 2V9.66699L15.334 9.87109C15.2384 10.8123 14.4899 11.5605 13.5488 11.6562L13.3438 11.667H2L1.7959 11.6562C0.854439 11.5608 0.106339 10.8125 0.0107422 9.87109L0 9.66699V2C1.02432e-06 0.96435 0.787223 0.113005 1.7959 0.0107422L2 0H13.3438L13.5488 0.0107422ZM0.5 3.91699V9.66699C0.500176 10.4953 1.17168 11.167 2 11.167H13.3438C14.1721 11.167 14.8436 10.4953 14.8438 9.66699V3.91699H0.5ZM2 0.5C1.17157 0.5 0.500001 1.17157 0.5 2V3.41699H14.8438V2C14.8438 1.17157 14.1722 0.5 13.3438 0.5H2Z" fill="black"/>
</svg>
